<?xml version="1.0" encoding="UTF-8" standalone="no"?>
<!-- Created with Inkscape (http://www.inkscape.org/) -->

<svg
   width="500mm"
   height="500mm"
   viewBox="0 0 500 500"
   version="1.1"
   id="svg5"
   inkscape:version="1.1.2 (b8e25be833, 2022-02-05)"
   sodipodi:docname="icon.svg"
   inkscape:export-filename="C:\Users\ACER\Desktop\Code\GameDev\Godot\Projects\C# Projects\GodotAlchemyCircleGenerator\icon.png"
   inkscape:export-xdpi="96"
   inkscape:export-ydpi="96"
   xmlns:inkscape="http://www.inkscape.org/namespaces/inkscape"
   xmlns:sodipodi="http://sodipodi.sourceforge.net/DTD/sodipodi-0.dtd"
   xmlns="http://www.w3.org/2000/svg"
   xmlns:svg="http://www.w3.org/2000/svg">
  <sodipodi:namedview
     id="namedview7"
     pagecolor="#505050"
     bordercolor="#ffffff"
     borderopacity="1"
     inkscape:pageshadow="0"
     inkscape:pageopacity="0"
     inkscape:pagecheckerboard="1"
     inkscape:document-units="mm"
     showgrid="false"
     inkscape:zoom="0.39550949"
     inkscape:cx="1085.9411"
     inkscape:cy="1068.2424"
     inkscape:window-width="1366"
     inkscape:window-height="746"
     inkscape:window-x="-8"
     inkscape:window-y="-8"
     inkscape:window-maximized="1"
     inkscape:current-layer="layer1" />
  <defs
     id="defs2" />
  <g
     inkscape:label="Layer 1"
     inkscape:groupmode="layer"
     id="layer1">
    <rect
       style="opacity:1;fill:#000000;fill-opacity:1;stroke:none;stroke-width:0;stroke-miterlimit:4;stroke-dasharray:none;stroke-opacity:1"
       id="rect22823"
       width="500"
       height="500"
       x="5.7731597e-15"
       y="1.8429702e-14"
       rx="300"
       ry="300" />
    <ellipse
       style="fill:none;stroke:#6680ff;stroke-width:2.11666667;stroke-miterlimit:4;stroke-dasharray:none;stroke-opacity:1"
       id="path1356"
       cx="250"
       cy="250"
       rx="163.84384"
       ry="163.86024" />
    <ellipse
       style="fill:none;stroke:#6680ff;stroke-width:2.11666667;stroke-miterlimit:4;stroke-dasharray:none;stroke-opacity:1"
       id="circle1492"
       cx="250"
       cy="250"
       rx="156.91098"
       ry="156.92668" />
    <ellipse
       style="fill:none;stroke:#6680ff;stroke-width:2.11666667;stroke-miterlimit:4;stroke-dasharray:none;stroke-opacity:1"
       id="circle1494"
       cx="250"
       cy="250"
       rx="133.33922"
       ry="133.35255" />
    <ellipse
       style="fill:none;stroke:#6680ff;stroke-width:2.11666667;stroke-miterlimit:4;stroke-dasharray:none;stroke-opacity:1"
       id="circle1496"
       cx="250"
       cy="250"
       rx="109.56314"
       ry="109.5741" />
    <ellipse
       style="fill:none;stroke:#6680ff;stroke-width:2.11666667;stroke-miterlimit:4;stroke-dasharray:none;stroke-opacity:1"
       id="circle1498"
       cx="250"
       cy="250"
       rx="42.660912"
       ry="42.66518" />
    <ellipse
       style="fill:none;stroke:#6680ff;stroke-width:2.11666667;stroke-miterlimit:4;stroke-dasharray:none;stroke-opacity:1"
       id="circle1500"
       cx="250"
       cy="250"
       rx="34.688107"
       ry="34.691578" />
    <path
       sodipodi:type="star"
       style="opacity:1;fill:none;stroke:#6680ff;stroke-width:6.7057944;stroke-miterlimit:4;stroke-dasharray:none;stroke-opacity:1"
       id="path1542"
       inkscape:flatsided="true"
       sodipodi:sides="6"
       sodipodi:cx="944.4798"
       sodipodi:cy="950.99347"
       sodipodi:r1="419.32059"
       sodipodi:r2="363.1423"
       sodipodi:arg1="1.5707963"
       sodipodi:arg2="2.0943951"
       inkscape:rounded="0"
       inkscape:randomized="0"
       transform="matrix(0.31563163,0,0,0.3156632,-48.107696,-50.193634)"
       inkscape:transform-center-y="-1.1486229e-06"
       d="m 944.47981,1370.3141 -363.14229,-209.6603 -1e-5,-419.32061 363.14228,-209.66031 363.14231,209.66029 0,419.32063 z" />
    <ellipse
       style="fill:none;stroke:#6680ff;stroke-width:2.11666667;stroke-miterlimit:4;stroke-dasharray:none;stroke-opacity:1"
       id="path2162"
       cx="250"
       cy="250"
       rx="61.085922"
       ry="61.092022" />
    <path
       style="fill:none;stroke:#6680ff;stroke-width:2.11666667;stroke-linecap:butt;stroke-linejoin:miter;stroke-miterlimit:4;stroke-dasharray:none;stroke-opacity:1"
       d="M 135.38081,183.81797 250,382.36407 364.61917,183.81796 Z"
       id="path2422" />
    <path
       style="fill:none;stroke:#6680ff;stroke-width:2.11667;stroke-linecap:butt;stroke-linejoin:bevel;stroke-miterlimit:4;stroke-dasharray:none;stroke-opacity:1"
       d="m 249.99998,117.63593 1e-5,264.72814 114.61921,-66.18203 -229.2384,-132.36407 229.23836,-1e-5 -229.23836,132.36408 114.61919,66.18203"
       id="path2555" />
    <ellipse
       style="fill:#000000;fill-opacity:1;stroke:#6680ff;stroke-width:2.11666667;stroke-miterlimit:4;stroke-dasharray:none;stroke-opacity:1"
       id="path2947"
       cx="250"
       cy="184.28461"
       rx="21.479094"
       ry="21.481241" />
    <ellipse
       style="fill:#000000;fill-opacity:1;stroke:#6680ff;stroke-width:2.11666667;stroke-miterlimit:4;stroke-dasharray:none;stroke-opacity:1"
       id="circle3095"
       cx="191.35481"
       cy="286.86356"
       rx="21.479094"
       ry="21.481241" />
    <ellipse
       style="fill:#000000;fill-opacity:1;stroke:#6680ff;stroke-width:2.11666667;stroke-miterlimit:4;stroke-dasharray:none;stroke-opacity:1"
       id="circle3097"
       cx="308.6452"
       cy="286.86356"
       rx="21.479094"
       ry="21.481241" />
    <g
       id="g4968"
       style="stroke-width:1.7452684;stroke-miterlimit:4;stroke-dasharray:none;stroke:#6680ff;stroke-opacity:1"
       transform="matrix(1.2127423,0,0,1.2128636,-53.18556,-53.215879)">
      <path
         style="opacity:1;fill:none;stroke:#6680ff;stroke-width:1.7452684;stroke-miterlimit:4;stroke-dasharray:none;stroke-opacity:1"
         id="path3431"
         sodipodi:type="arc"
         sodipodi:cx="250"
         sodipodi:cy="359.13354"
         sodipodi:rx="51.41296"
         sodipodi:ry="51.41296"
         sodipodi:start="3.6654733"
         sodipodi:end="5.7592599"
         sodipodi:arc-type="slice"
         d="m 205.48232,333.41452 a 51.41296,51.41296 0 0 1 44.51653,-25.69394 51.41296,51.41296 0 0 1 44.51768,25.69194 L 250,359.13354 Z" />
      <path
         style="opacity:1;fill:none;stroke:#6680ff;stroke-width:1.7452684;stroke-miterlimit:4;stroke-dasharray:none;stroke-opacity:1"
         id="path3623"
         sodipodi:type="arc"
         sodipodi:cx="250"
         sodipodi:cy="359.13354"
         sodipodi:rx="40"
         sodipodi:ry="40"
         sodipodi:start="3.6651914"
         sodipodi:end="5.7595865"
         sodipodi:arc-type="slice"
         d="M 215.35898,339.13355 A 40,40 0 0 1 250,319.13354 a 40,40 0 0 1 34.64102,20 l -34.64102,20 z" />
      <path
         style="opacity:1;fill:none;stroke:#6680ff;stroke-width:1.7452684;stroke-miterlimit:4;stroke-dasharray:none;stroke-opacity:1"
         id="path3727"
         sodipodi:type="arc"
         sodipodi:cx="250"
         sodipodi:cy="359.13354"
         sodipodi:rx="35"
         sodipodi:ry="35"
         sodipodi:start="3.6651914"
         sodipodi:end="5.7595865"
         sodipodi:arc-type="arc"
         sodipodi:open="true"
         d="M 219.68911,341.63355 A 35,35 0 0 1 250,324.13354 a 35,35 0 0 1 30.31089,17.5" />
    </g>
    <g
       id="g4976"
       transform="matrix(-0.61271008,1.0466849,-1.0465802,-0.61277136,664.40946,141.77589)"
       inkscape:transform-center-x="-34.574334"
       inkscape:transform-center-y="17.410525"
       style="stroke-width:1.74526847;stroke-miterlimit:4;stroke-dasharray:none;stroke:#6680ff;stroke-opacity:1">
      <path
         style="opacity:1;fill:none;stroke:#6680ff;stroke-width:1.74526847;stroke-miterlimit:4;stroke-dasharray:none;stroke-opacity:1"
         id="path4970"
         sodipodi:type="arc"
         sodipodi:cx="250"
         sodipodi:cy="359.13354"
         sodipodi:rx="51.41296"
         sodipodi:ry="51.41296"
         sodipodi:start="3.6654733"
         sodipodi:end="5.7592599"
         sodipodi:arc-type="slice"
         d="m 205.48232,333.41452 a 51.41296,51.41296 0 0 1 44.51653,-25.69394 51.41296,51.41296 0 0 1 44.51768,25.69194 L 250,359.13354 Z" />
      <path
         style="opacity:1;fill:none;stroke:#6680ff;stroke-width:1.74526847;stroke-miterlimit:4;stroke-dasharray:none;stroke-opacity:1"
         id="path4972"
         sodipodi:type="arc"
         sodipodi:cx="250"
         sodipodi:cy="359.13354"
         sodipodi:rx="40"
         sodipodi:ry="40"
         sodipodi:start="3.6651914"
         sodipodi:end="5.7595865"
         sodipodi:arc-type="slice"
         d="M 215.35898,339.13355 A 40,40 0 0 1 250,319.13354 a 40,40 0 0 1 34.64102,20 l -34.64102,20 z" />
      <path
         style="opacity:1;fill:none;stroke:#6680ff;stroke-width:1.74526847;stroke-miterlimit:4;stroke-dasharray:none;stroke-opacity:1"
         id="path4974"
         sodipodi:type="arc"
         sodipodi:cx="250"
         sodipodi:cy="359.13354"
         sodipodi:rx="35"
         sodipodi:ry="35"
         sodipodi:start="3.6651914"
         sodipodi:end="5.7595865"
         sodipodi:arc-type="arc"
         sodipodi:open="true"
         d="M 219.68911,341.63355 A 35,35 0 0 1 250,324.13354 a 35,35 0 0 1 30.31089,17.5" />
    </g>
    <g
       id="g4984"
       transform="matrix(0.61271009,1.0466849,1.0465802,-0.61277136,-164.42041,142.21351)"
       inkscape:transform-center-x="34.574332"
       inkscape:transform-center-y="17.410532"
       style="stroke-width:1.74526847;stroke-miterlimit:4;stroke-dasharray:none;stroke:#6680ff;stroke-opacity:1">
      <path
         style="opacity:1;fill:none;stroke:#6680ff;stroke-width:1.74526847;stroke-miterlimit:4;stroke-dasharray:none;stroke-opacity:1"
         id="path4978"
         sodipodi:type="arc"
         sodipodi:cx="250"
         sodipodi:cy="359.13354"
         sodipodi:rx="51.41296"
         sodipodi:ry="51.41296"
         sodipodi:start="3.6654733"
         sodipodi:end="5.7592599"
         sodipodi:arc-type="slice"
         d="m 205.48232,333.41452 a 51.41296,51.41296 0 0 1 44.51653,-25.69394 51.41296,51.41296 0 0 1 44.51768,25.69194 L 250,359.13354 Z" />
      <path
         style="opacity:1;fill:none;stroke:#6680ff;stroke-width:1.74526847;stroke-miterlimit:4;stroke-dasharray:none;stroke-opacity:1"
         id="path4980"
         sodipodi:type="arc"
         sodipodi:cx="250"
         sodipodi:cy="359.13354"
         sodipodi:rx="40"
         sodipodi:ry="40"
         sodipodi:start="3.6651914"
         sodipodi:end="5.7595865"
         sodipodi:arc-type="slice"
         d="M 215.35898,339.13355 A 40,40 0 0 1 250,319.13354 a 40,40 0 0 1 34.64102,20 l -34.64102,20 z" />
      <path
         style="opacity:1;fill:none;stroke:#6680ff;stroke-width:1.74526847;stroke-miterlimit:4;stroke-dasharray:none;stroke-opacity:1"
         id="path4982"
         sodipodi:type="arc"
         sodipodi:cx="250"
         sodipodi:cy="359.13354"
         sodipodi:rx="35"
         sodipodi:ry="35"
         sodipodi:start="3.6651914"
         sodipodi:end="5.7595865"
         sodipodi:arc-type="arc"
         sodipodi:open="true"
         d="M 219.68911,341.63355 A 35,35 0 0 1 250,324.13354 a 35,35 0 0 1 30.31089,17.5" />
    </g>
    <path
       fill="#ffffff"
       d="m 308.64372,271.70278 c -8.37919,0 -15.15929,6.78077 -15.15929,15.16079 0,8.38002 6.7801,15.1608 15.15929,15.1608 8.37917,0 15.15926,-6.78078 15.15926,-15.1608 0,-8.38002 -6.78009,-15.16079 -15.15926,-15.16079 z m 1.99563,1.57493 c 2.04683,0.51495 2.90394,1.03056 3.9913,2.16345 -0.90827,0.6493 -2.09158,0.85528 -3.35806,0.93589 1.77818,0.44521 3.38366,1.33247 4.6885,2.53509 0.5309,0.2175 1.01702,0.32625 1.36883,0.18552 -1.02343,-0.6269 -1.40081,-2.07901 -1.14496,-2.95027 1.31764,1.47258 1.93169,2.43852 3.47321,2.51529 1.08098,1.81033 1.32403,2.78266 1.29206,4.35633 -1.10657,-0.18551 -2.09159,-0.87639 -3.04466,-1.7208 0.91467,1.50969 1.46475,3.26886 1.54151,5.14317 0.21748,0.51815 0.47972,0.93395 0.82513,1.07468 -0.27504,-1.17065 0.47972,-2.46283 1.27926,-2.89782 -0.1151,1.97027 -0.36458,3.08973 0.67163,4.23478 -0.51173,2.04703 -1.02982,2.90422 -2.16195,3.9917 -0.64604,-0.90836 -0.85074,-2.0854 -0.93388,-3.34562 -0.44774,1.78476 -1.34322,3.39681 -2.55853,4.70818 -0.20468,0.51815 -0.30702,0.99153 -0.1663,1.33696 0.63323,-1.02351 2.07879,-1.40092 2.9487,-1.14505 -1.47116,1.31136 -2.43699,1.92547 -2.51375,3.47354 -1.81016,1.08108 -2.7824,1.32418 -4.3559,1.29221 0.1855,-1.0939 0.86991,-2.07263 1.70143,-3.02579 -1.50954,0.91478 -3.26853,1.45851 -5.14264,1.52889 -0.50531,0.21109 -0.90828,0.47977 -1.049,0.81241 1.17053,-0.27508 2.4626,0.48616 2.89752,1.27939 -1.97006,-0.10869 -3.08942,-0.35823 -4.23435,0.67807 -2.04682,-0.51174 -2.90393,-1.02989 -3.9913,-2.16217 0.90188,-0.64608 2.066,-0.85079 3.31969,-0.93395 -1.77817,-0.44778 -3.38366,-1.34336 -4.68851,-2.55878 -0.5117,-0.20471 -0.99142,-0.30705 -1.33043,-0.17272 1.02342,0.6333 1.40079,2.08541 1.14494,2.95539 -1.31764,-1.4713 -1.93169,-2.43723 -3.47385,-2.514 -1.08545,-1.81034 -1.32531,-2.78267 -1.29332,-4.34993 1.09697,0.17911 2.07239,0.86358 3.02097,1.69519 -0.90634,-1.50969 -1.45196,-3.26245 -1.52039,-5.13036 -0.21684,-0.51176 -0.48164,-0.92117 -0.81938,-1.0619 0.27506,1.17065 -0.48613,2.46282 -1.27926,2.89784 0.10868,-1.97028 0.35819,-3.08974 -0.67801,-4.2348 0.51171,-2.04702 1.0298,-2.9042 2.16196,-3.99171 0.64986,0.90199 0.8539,2.07903 0.93449,3.33921 a 10.786753,10.787831 0 0 1 2.54382,-4.68256 c 0.21748,-0.52457 0.31982,-1.01071 0.1791,-1.35617 -0.63323,1.02352 -2.08521,1.39455 -2.95062,1.14507 1.47307,-1.31778 2.43892,-1.93189 2.51568,-3.47483 1.69503,-1.01776 2.65446,-1.29218 4.06166,-1.29603 0.096,-7.3e-4 0.1919,7.3e-4 0.28782,0.002 -0.17909,1.1073 -0.87629,2.08861 -1.72061,3.04751 1.51594,-0.9154 3.26853,-1.46681 5.14265,-1.53911 0.52449,-0.21813 0.94026,-0.48617 1.08098,-0.82904 -1.17053,0.2757 -2.46258,-0.48168 -2.89754,-1.27875 1.97006,0.10938 3.08941,0.35951 4.23436,-0.67617 z m 0.82513,0.89686 c -0.3518,0 -0.63961,0.28657 -0.63961,0.6397 0,0.3531 0.28781,0.63969 0.63961,0.63969 0.35181,0 0.63964,-0.28659 0.63964,-0.63969 0,-0.35313 -0.28783,-0.6397 -0.63964,-0.6397 z m -9.34502,1.53525 c -0.1663,0 -0.32623,0.0628 -0.45414,0.1868 -0.24945,0.24886 -0.24945,0.6557 0,0.90453 0.24945,0.2495 0.65882,0.2495 0.90827,0 0.24307,-0.24883 0.24307,-0.65567 0,-0.90453 -0.12797,-0.12402 -0.28782,-0.1868 -0.45413,-0.1868 z m 17.0334,3.98916 c -0.1599,0 -0.32621,0.064 -0.45414,0.18551 -0.24946,0.24949 -0.24305,0.65248 0,0.90196 0.24946,0.2495 0.65882,0.2495 0.90828,0 0.24945,-0.24948 0.24945,-0.65888 0,-0.90196 -0.12158,-0.12158 -0.28784,-0.18551 -0.45414,-0.18551 z m -22.55214,3.70382 c -0.35179,0 -0.63965,0.28789 -0.63965,0.63971 0,0.35184 0.28786,0.63968 0.63965,0.63968 0.3518,0 0.63963,-0.28784 0.63963,-0.63968 0,-0.35182 -0.28783,-0.63971 -0.63963,-0.63971 z m 24.08725,5.63574 c -0.3518,0 -0.63962,0.28785 -0.63962,0.6397 0,0.35182 0.28782,0.63969 0.63962,0.63969 0.3518,0 0.63963,-0.28787 0.63963,-0.63969 0,-0.35185 -0.28783,-0.6397 -0.63963,-0.6397 z m -22.55085,3.70384 c -0.16377,0 -0.32814,0.064 -0.45223,0.18551 -0.24881,0.24948 -0.24881,0.65888 0,0.90835 0.24883,0.2495 0.65562,0.2495 0.90443,0 0.24883,-0.24947 0.24883,-0.65887 0,-0.90835 -0.12402,-0.12159 -0.28846,-0.18551 -0.4522,-0.18551 z m 17.02443,3.98529 c -0.15991,0 -0.31981,0.0576 -0.44773,0.18553 -0.24946,0.24947 -0.24946,0.65888 0,0.90836 0.24945,0.24948 0.65242,0.24948 0.90187,0 0.24947,-0.24948 0.24947,-0.65889 0,-0.90836 -0.12797,-0.12797 -0.28783,-0.18553 -0.45414,-0.18553 z m -9.33223,1.53528 c -0.35179,0 -0.63963,0.28788 -0.63963,0.6397 0,0.35183 0.28784,0.63969 0.63963,0.63969 0.3518,0 0.63963,-0.28786 0.63963,-0.63969 0,-0.35182 -0.28783,-0.6397 -0.63963,-0.6397 z"
       id="path11773"
       style="stroke:#ffffff;stroke-width:0;stroke-miterlimit:4;stroke-dasharray:none;stroke-opacity:1;fill:#98f8ff;fill-opacity:1" />
    <path
       fill="#ffffff"
       d="m 185.37586,276.02914 c -3.46876,0.0105 -6.83229,1.86491 -8.89799,3.49115 a 0.69518219,0.69525172 0 1 0 0.8604,1.09222 c 2.21888,-1.74681 6.22843,-3.74485 9.62886,-3.0386 1.32076,0.27432 4.42353,1.40464 7.94828,2.32886 3.5248,0.92419 7.5304,1.66532 10.99713,1.1177 a 0.69495167,0.69502118 0 1 0 -0.21893,-1.37269 c -3.10516,0.49059 -6.97902,-0.18428 -10.4255,-1.08793 -3.44659,-0.90366 -6.40694,-2.01109 -8.01841,-2.34583 -0.5114,-0.10624 -1.02595,-0.16428 -1.53824,-0.1806 -0.11207,-0.003 -0.22367,-0.006 -0.3356,-0.003 z m -0.72026,6.08992 c -1.64477,-0.0146 -3.23184,0.37636 -4.63817,1.47891 -0.37121,0.29102 -1.17791,1.01966 -1.96522,1.8422 -0.39364,0.41122 -0.77282,0.83769 -1.07509,1.24295 -0.30222,0.40539 -0.56737,0.72686 -0.61188,1.27286 -0.0197,0.24084 0.0622,0.62489 0.3485,0.83716 0.28621,0.21215 0.55777,0.18918 0.74358,0.16361 0.37163,-0.0509 0.64928,-0.18905 0.95184,-0.31654 0.30255,-0.12755 0.60476,-0.25252 0.80091,-0.30392 0.0639,-0.0166 0.082,-0.0159 0.11055,-0.019 0.85782,0.78656 1.86315,1.25145 2.92997,1.4704 0.0936,0.63691 0.13543,1.10811 0.14875,1.44489 -0.0981,-0.0847 -0.21649,-0.17882 -0.55458,-0.17638 -0.21445,0.001 -0.51876,0.15979 -0.64385,0.34848 -0.12485,0.18883 -0.14006,0.33901 -0.14864,0.46543 -0.0424,0.6225 0.18276,1.0886 0.34423,1.4237 0.16141,0.33495 0.31154,0.6492 0.39299,1.4257 0.0899,0.85606 0.0883,0.79977 0.0871,0.87771 -0.001,0.0779 -0.006,0.30134 0.0723,1.45339 a 0.69533742,0.69540696 0 1 0 1.38737,-0.0956 c -0.0773,-1.13975 -0.0738,-1.23799 -0.0723,-1.3365 0.001,-0.0987 -0.004,-0.18741 -0.0933,-1.04334 -0.0772,-0.73543 -0.24478,-1.24588 -0.39945,-1.6106 0.20886,-10e-4 0.44276,-0.055 0.61836,-0.21044 0.28053,-0.24821 0.34484,-0.53765 0.38455,-0.83295 0.0615,-0.45605 0.0343,-1.04442 -0.0871,-1.92727 2.80739,2.6094 4.59384,4.25483 6.29098,5.34838 1.74051,1.12125 3.39024,1.62734 5.743,1.93786 1.70365,0.2248 3.97119,0.33631 5.98726,-0.0468 1.00799,-0.19154 1.95895,-0.50642 2.74503,-1.03692 0.78594,-0.5305 1.4026,-1.31231 1.61677,-2.31184 0.23592,-1.10071 -0.43309,-2.07657 -1.24079,-2.74959 -0.80772,-0.67288 -1.84214,-1.14552 -2.88735,-0.92644 -0.82366,0.17269 -1.40232,0.78602 -1.79965,1.4853 -0.19851,0.34975 -0.34552,0.73556 -0.34399,1.17085 0.001,0.43531 0.22298,0.94149 0.64362,1.22392 a 0.69509947,0.69516898 0 1 0 0.77555,-1.15387 c -0.0524,-0.0349 -0.0294,0.0105 -0.0299,-0.0741 -2.5e-4,-0.0849 0.0468,-0.27836 0.16148,-0.48023 0.22938,-0.4037 0.75261,-0.78555 0.87759,-0.81174 0.37923,-0.0796 1.14861,0.16183 1.71454,0.63324 0.56595,0.47147 0.84033,1.06922 0.77126,1.39185 -0.1349,0.62923 -0.47741,1.07365 -1.03683,1.45117 -0.55941,0.37764 -1.34005,0.65595 -2.22663,0.82443 -1.77333,0.33705 -3.94828,0.24507 -5.54746,0.034 -2.24917,-0.29679 -3.59834,-0.71598 -5.17133,-1.7296 -1.36248,-0.87781 -2.89956,-2.23772 -5.19051,-4.35597 0.73482,-0.1046 1.47875,-0.26743 2.22459,-0.46528 3.09006,-0.81989 6.25289,-2.23978 8.70252,-2.7793 3.12236,0.58183 6.27221,0.58203 9.42049,-0.238 a 0.69470629,0.69477577 0 0 0 -0.16562,-1.36848 0.69470629,0.69477577 0 0 0 -0.18493,0.0233 c -3.11524,0.81152 -6.2272,0.76631 -9.37384,0.10612 a 0.69484226,0.69491174 0 0 0 -0.22946,-0.009 c -2.42584,-0.59204 -5.10423,-1.74916 -7.74648,-2.43932 -1.06571,-0.27837 -2.14456,-0.4776 -3.20178,-0.52057 -0.11021,-0.004 -0.21959,-0.007 -0.32934,-0.009 z m 0.0935,1.381 c 0.0717,10e-4 0.14428,0.002 0.21676,0.006 0.90642,0.0438 1.86526,0.22405 2.87034,0.48656 1.90122,0.49663 3.90763,1.28581 5.90869,1.91456 -2.06292,0.67561 -4.25181,1.5481 -6.33776,2.10153 -0.56907,0.15095 -1.12888,0.27721 -1.67218,0.36968 0.77263,-0.47039 1.29606,-1.30054 1.29606,-2.25439 0,-1.32025 -1.00079,-2.40532 -2.28191,-2.62419 z m -1.28755,0.0788 c -1.11582,0.33559 -1.944,1.34308 -1.944,2.54559 0,1.04712 0.62821,1.94546 1.52771,2.38187 -1.11195,-0.12307 -2.06141,-0.50364 -2.87476,-1.28967 -0.21757,-0.21037 -0.50107,-0.2866 -0.72231,-0.29747 -0.22116,-0.0105 -0.40881,0.0251 -0.58851,0.0722 -0.16268,0.0425 -0.31838,0.0971 -0.46953,0.15502 0.20207,-0.24091 0.42446,-0.4901 0.6671,-0.74359 0.73863,-0.77176 1.58998,-1.53126 1.8187,-1.71056 0.79545,-0.62352 1.65893,-0.96913 2.5856,-1.11343 z"
       id="path15951"
       style="stroke:#ffffff;stroke-width:0;stroke-miterlimit:4;stroke-dasharray:none;stroke-opacity:1;fill:#98f8ff;fill-opacity:1" />
    <path
       fill="#ffffff"
       d="m 240.28639,191.41071 c 1.07618,-0.31452 2.15546,-0.58282 3.26156,-0.77435 v -13.10635 c -1.10592,-0.19126 -2.18538,-0.46006 -3.26156,-0.77427 v -2.79595 c 3.20714,0.93689 6.07586,1.33266 9.43728,1.33266 3.57564,0 6.60805,-0.43208 9.98696,-1.52958 v 2.80865 c -1.17986,0.38305 -2.34814,0.69376 -3.57066,0.91588 v 13.1914 c 1.22229,0.22192 2.39111,0.53263 3.57066,0.91587 v 3.21166 c -3.37914,-1.09778 -6.41155,-1.52957 -9.98682,-1.52957 -3.36178,0 -6.23028,0.39577 -9.43742,1.33288 z m 9.32202,-1.27894 c 0.86478,0 2.61642,0.007 3.45944,0.0215 v -12.14029 c -0.84302,0.0141 -2.59466,0.021 -3.45926,0.021 -0.70372,0 -2.298,-0.006 -2.98874,-0.0141 v 12.1259 c 0.69074,-0.009 2.28502,-0.0139 2.98874,-0.0139 z"
       id="path19675"
       style="stroke:#ffffff;stroke-width:0;stroke-miterlimit:4;stroke-dasharray:none;stroke-opacity:1;fill:#98f8ff;fill-opacity:1"
       sodipodi:nodetypes="cccccsccccccscccccscccc" />
  </g>
</svg>
